<svg width="16" height="16" viewBox="0 0 16 16" fill="none" xmlns="http://www.w3.org/2000/svg">
  <rect width="16" height="16" rx="3" fill="#1976d2"/>
  <path d="M4 6V12C4 12.2761 4.22386 12.5 4.5 12.5H11.5C11.7761 12.5 12 12.2761 12 12V6H4Z" fill="white"/>
  <path d="M3 4C3 3.72386 3.22386 3.5 3.5 3.5H12.5C12.7761 3.5 13 3.72386 13 4V5H3V4Z" fill="white"/>
  <rect x="4.5" y="6.5" width="1" height="1" fill="#1976d2"/>
  <rect x="6" y="6.5" width="1" height="1" fill="#1976d2"/>
  <rect x="7.5" y="6.5" width="1" height="1" fill="#1976d2"/>
  <rect x="9" y="6.5" width="1" height="1" fill="#1976d2"/>
  <rect x="10.5" y="6.5" width="1" height="1" fill="#1976d2"/>
  <rect x="4.5" y="8" width="1" height="1" fill="#1976d2"/>
  <rect x="6" y="8" width="1" height="1" fill="#1976d2"/>
  <rect x="7.5" y="8" width="1" height="1" fill="#1976d2"/>
  <rect x="9" y="8" width="1" height="1" fill="#1976d2"/>
  <rect x="10.5" y="8" width="1" height="1" fill="#1976d2"/>
  <circle cx="8" cy="10" r="1" fill="#1976d2"/>
  <path d="M7 10L7.5 10.5L9 9" stroke="white" stroke-width="0.75" stroke-linecap="round" stroke-linejoin="round" fill="none"/>
</svg>
